<?xml version="1.0" standalone="no"?>
<!DOCTYPE svg PUBLIC "-//W3C//DTD SVG 20010904//EN"
 "http://www.w3.org/TR/2001/REC-SVG-20010904/DTD/svg10.dtd">
<svg version="1.0" xmlns="http://www.w3.org/2000/svg"
 width="192.000000pt" height="192.000000pt" viewBox="0 0 192.000000 192.000000"
 preserveAspectRatio="xMidYMid meet">
<metadata>
Created by potrace 1.11, written by Peter Selinger 2001-2013
</metadata>
<g transform="translate(0.000000,192.000000) scale(0.100000,-0.100000)"
fill="#000000" stroke="none">
<path d="M742 1811 c-11 -7 -10 -10 3 -15 20 -7 38 1 30 15 -7 11 -16 11 -33
0z"/>
<path d="M794 1803 c3 -7 2 -12 -2 -11 -4 1 -17 -3 -29 -10 -15 -8 -23 -9 -23
-2 0 5 -5 10 -11 10 -5 0 -7 -5 -3 -11 5 -8 -3 -10 -25 -7 -18 3 -35 0 -38 -5
-4 -6 -1 -7 8 -2 12 7 12 5 1 -6 -11 -12 -14 -12 -22 1 -9 13 -14 8 -11 -12 0
-3 -7 -5 -17 -3 -9 1 -22 -2 -29 -7 -7 -5 -18 -6 -24 -2 -8 5 -9 3 -4 -6 6
-10 3 -12 -13 -8 -23 6 -31 -7 -10 -14 7 -3 2 -7 -10 -10 -12 -4 -20 -2 -16 3
3 5 -2 6 -10 3 -9 -3 -13 -10 -11 -15 3 -5 -6 -11 -20 -15 -14 -3 -29 -11 -33
-18 -4 -6 -21 -22 -37 -36 -30 -25 -30 -25 -10 -1 l20 24 -22 -14 c-13 -8 -23
-20 -23 -27 0 -9 -6 -12 -16 -8 -8 3 -12 2 -9 -4 3 -6 1 -10 -5 -10 -6 0 -8
-4 -5 -10 3 -5 -1 -10 -10 -10 -10 0 -13 -5 -9 -12 5 -8 2 -9 -10 -5 -9 4 -15
3 -12 -1 3 -5 -4 -15 -16 -23 -11 -8 -24 -24 -29 -37 -5 -14 -14 -20 -21 -16
-7 4 -8 3 -4 -4 4 -7 2 -12 -4 -12 -6 0 -8 -5 -4 -12 5 -8 2 -9 -11 -4 -15 5
-16 4 -5 -9 10 -12 10 -15 -4 -15 -9 0 -15 -6 -14 -12 2 -7 -2 -12 -9 -11 -7
2 -10 -3 -7 -11 3 -8 0 -17 -7 -22 -8 -5 -10 -3 -4 6 5 9 4 11 -4 6 -9 -6 -9
-11 -1 -21 8 -9 6 -14 -5 -19 -8 -3 -15 -13 -15 -21 0 -9 -4 -14 -9 -11 -5 3
-7 -7 -6 -23 2 -23 -1 -28 -14 -23 -14 5 -14 4 -1 -13 10 -13 11 -16 2 -11 -9
5 -13 3 -11 -5 3 -27 -1 -40 -11 -34 -6 4 -10 3 -9 -2 5 -26 -3 -63 -12 -60
-6 1 -13 -6 -14 -16 -2 -9 1 -15 6 -11 5 3 6 11 2 17 -4 7 0 6 10 -2 19 -15
23 -26 5 -15 -8 5 -9 0 -5 -15 4 -17 2 -20 -7 -12 -8 7 -12 5 -13 -10 -1 -13
2 -17 10 -12 9 5 9 3 0 -8 -11 -13 -16 -141 -6 -166 3 -6 12 -14 21 -18 14 -5
15 -4 5 6 -7 7 -13 18 -13 23 0 6 8 -1 17 -14 10 -14 17 -28 16 -31 -1 -3 4
-6 12 -6 8 0 12 4 9 9 -3 4 0 8 5 8 6 0 11 -4 11 -10 0 -5 5 -10 11 -10 5 0 7
5 3 12 -5 7 -3 8 5 4 7 -5 19 0 27 10 9 11 13 14 10 8 -3 -6 1 -11 8 -11 8 0
11 8 8 19 -2 10 0 18 5 18 5 0 15 11 21 24 8 18 7 27 -6 39 -14 15 -14 17 1
22 8 4 13 13 10 21 -3 8 1 22 8 31 12 14 12 16 -1 8 -12 -6 -13 -5 -2 6 15 17
16 43 0 33 -7 -4 -8 -3 -4 4 4 7 15 12 24 12 10 0 13 3 7 8 -13 9 -13 27 -1
39 5 5 6 2 1 -6 -6 -10 -4 -12 4 -6 9 5 10 10 2 18 -13 13 -15 30 -2 23 5 -3
15 2 22 11 10 12 10 14 2 9 -7 -4 -13 -2 -13 3 0 6 5 11 11 11 5 0 8 4 4 10
-3 5 3 18 14 29 13 13 16 21 8 25 -7 2 -4 5 6 5 9 1 17 6 17 12 0 5 -5 7 -12
3 -7 -4 -8 -3 -4 5 4 6 12 9 17 6 5 -4 14 5 20 19 7 14 17 22 23 19 6 -4 4 2
-4 13 -8 10 -11 16 -6 12 5 -4 30 15 56 42 26 27 51 46 55 42 5 -4 5 1 2 10
-3 10 -3 17 1 17 25 -4 42 2 36 13 -5 7 -2 9 9 5 12 -4 14 -2 10 10 -4 11 -2
14 5 9 7 -4 12 -3 12 3 0 6 8 8 18 4 9 -3 14 -3 10 2 -13 14 25 35 40 23 9 -8
11 -7 7 5 -4 8 -1 18 6 23 8 5 10 3 4 -6 -6 -10 -4 -12 9 -7 10 4 20 7 22 7 3
0 2 5 -1 10 -9 14 9 12 24 -2 10 -11 11 -10 6 4 -5 13 -2 16 14 13 12 -2 21 1
21 8 0 8 3 8 9 -1 7 -11 9 -11 14 2 4 9 12 16 19 16 9 0 8 -3 -2 -10 -8 -5
-12 -10 -7 -10 7 0 16 4 68 31 19 10 21 9 15 -7 -7 -17 -6 -17 13 0 11 10 22
13 25 8 3 -6 14 -9 24 -7 9 2 23 4 30 4 8 1 10 6 6 14 -6 9 -5 9 8 0 8 -7 18
-10 21 -6 4 3 7 2 7 -4 0 -6 7 -13 14 -16 10 -4 13 -1 10 7 -3 9 3 13 18 12
31 -3 48 12 41 32 -6 15 -5 15 10 3 15 -12 17 -12 11 4 -5 11 -4 16 3 12 5 -3
10 0 10 8 0 8 -4 12 -9 9 -4 -3 -5 2 -2 10 3 9 11 13 18 10 6 -3 3 1 -6 9 -14
11 -15 16 -5 27 9 10 9 11 0 6 -7 -4 -13 -2 -13 3 0 6 -6 11 -12 11 -7 0 -22
8 -33 17 -18 14 -18 15 -2 9 13 -4 17 -2 14 6 -3 10 -40 13 -136 14 -106 1
-131 -2 -127 -13z"/>
<path d="M1360 1685 c-14 -17 -35 -21 -24 -3 4 7 3 8 -5 4 -9 -6 -9 -11 0 -22
10 -12 9 -13 -5 -8 -11 4 -16 2 -14 -7 2 -8 -3 -13 -10 -11 -8 1 -11 -2 -8 -7
4 -5 2 -12 -3 -15 -14 -9 -2 -65 20 -87 12 -12 19 -14 20 -6 0 6 5 3 10 -8 6
-12 20 -25 32 -31 12 -5 21 -15 20 -22 -4 -16 9 -15 26 1 11 10 13 9 7 -1 -4
-7 -1 -15 8 -18 9 -3 16 -10 16 -15 0 -5 16 -25 35 -46 19 -20 32 -40 29 -45
-3 -4 2 -8 11 -8 10 0 13 5 9 12 -4 7 -3 8 4 4 9 -5 9 -13 1 -28 -8 -15 -8
-19 0 -14 6 4 15 -3 20 -16 5 -13 19 -33 30 -45 12 -13 16 -23 10 -23 -7 0 -2
-9 11 -20 15 -13 18 -20 9 -20 -11 0 -11 -2 1 -10 8 -5 11 -10 6 -10 -6 0 -1
-7 10 -16 13 -11 14 -14 3 -11 -9 3 -16 -1 -16 -8 0 -8 5 -13 11 -12 6 1 10
-6 10 -16 -2 -15 1 -16 14 -5 13 12 14 10 3 -9 -7 -15 -8 -23 -1 -23 5 0 10
-5 10 -11 0 -5 -4 -8 -8 -5 -4 2 -8 -4 -8 -15 0 -22 7 -24 26 -6 12 10 12 9 1
-5 -11 -15 -11 -21 0 -35 10 -11 10 -14 2 -9 -7 4 -13 4 -14 -1 0 -4 -2 -16
-4 -25 -2 -10 2 -15 9 -12 15 6 14 -28 -2 -67 -6 -15 -9 -43 -7 -63 2 -25 0
-34 -8 -29 -7 4 -6 -1 2 -10 7 -9 9 -17 3 -17 -5 0 -12 -11 -14 -25 -3 -13 -1
-22 3 -19 15 9 -4 -30 -24 -50 -15 -15 -16 -20 -6 -27 11 -6 10 -9 -4 -15 -9
-3 -14 -10 -11 -15 3 -5 0 -9 -6 -9 -6 0 -8 -4 -5 -10 3 -5 2 -10 -4 -10 -5 0
-8 -9 -6 -21 3 -17 1 -18 -9 -10 -11 9 -14 8 -12 -6 0 -11 -5 -17 -14 -15 -8
2 -12 0 -8 -3 4 -4 3 -16 -2 -26 -7 -12 -6 -19 3 -22 9 -4 9 -6 0 -6 -18 -1
-16 -28 2 -35 8 -3 12 -12 9 -21 -3 -8 -1 -15 5 -15 6 0 11 -8 12 -17 0 -16 1
-15 8 1 7 19 8 18 15 -5 5 -15 9 -19 13 -11 4 10 9 9 19 -5 13 -17 14 -17 8 0
-3 9 -1 17 5 17 6 0 11 -5 11 -12 0 -6 7 -3 16 8 8 10 12 13 9 6 -6 -11 -3
-11 14 0 12 7 17 14 11 16 -5 2 -4 9 3 17 7 7 16 10 21 7 5 -3 7 7 4 21 -3 15
-2 24 2 22 4 -2 16 3 26 11 10 9 12 12 4 8 -12 -6 -13 -4 -2 7 6 7 12 22 12
32 0 12 5 17 14 14 10 -4 13 3 11 24 -2 21 1 29 10 26 8 -4 10 3 7 20 -4 20
-2 24 9 18 11 -7 11 -5 -1 10 -9 11 -10 16 -2 11 7 -4 12 -1 12 9 0 10 5 13
13 9 9 -6 9 -4 -1 8 -10 13 -10 17 0 21 10 4 9 6 -1 6 -11 1 -10 5 5 17 10 8
14 13 8 10 -7 -3 -15 1 -18 10 -3 8 -2 12 4 9 11 -7 13 7 12 75 -1 35 2 41 9
27 6 -9 7 -22 3 -29 -4 -6 -3 -8 3 -5 15 9 10 177 -6 186 -7 5 -12 11 -12 15
1 3 1 27 1 52 0 33 -3 43 -12 38 -10 -6 -10 -4 0 7 6 7 12 17 12 22 0 4 -6 5
-12 1 -8 -5 -7 0 2 11 9 11 10 16 3 11 -8 -4 -13 -1 -13 9 0 10 -5 13 -12 9
-9 -5 -9 -2 1 9 9 12 10 17 2 17 -7 0 -11 8 -9 18 4 27 -23 82 -41 82 -14 0
-14 2 -1 10 12 8 12 10 1 10 -8 0 -11 3 -8 7 4 3 -6 17 -21 31 -16 16 -20 23
-10 19 15 -5 16 -4 6 13 -7 10 -16 16 -20 14 -4 -3 -8 0 -8 6 0 6 -4 8 -10 5
-5 -3 -7 0 -5 8 3 7 -3 24 -14 36 -11 13 -23 32 -26 42 -4 11 -16 19 -27 19
-18 0 -19 2 -7 17 8 9 9 14 2 10 -6 -4 -18 -1 -26 7 -8 8 -18 12 -22 8 -4 -4
-5 2 -3 13 1 11 -2 20 -9 20 -7 0 -19 9 -28 20 l-15 20 5 -20 c5 -16 3 -16 -6
3 -7 12 -16 22 -21 22 -5 0 -6 5 -2 12 5 7 3 8 -5 4 -7 -5 -19 0 -27 10 -9 11
-12 13 -9 6 6 -11 3 -11 -13 -1 -12 7 -19 16 -17 19 2 4 -2 7 -10 7 -8 0 -11
-5 -8 -11 4 -6 -3 -3 -14 7 -18 16 -22 16 -33 2z m430 -425 c6 -11 8 -20 6
-20 -3 0 -10 9 -16 20 -6 11 -8 20 -6 20 3 0 10 -9 16 -20z m77 -330 c1 -11
-2 -22 -6 -24 -6 -4 -7 26 -2 42 3 8 7 -1 8 -18z m-6 -63 c-10 -9 -11 -8 -5 6
3 10 9 15 12 12 3 -3 0 -11 -7 -18z m-176 -27 c3 -5 1 -10 -4 -10 -6 0 -11 5
-11 10 0 6 2 10 4 10 3 0 8 -4 11 -10z"/>
<path d="M967 1417 c3 -5 -4 -6 -17 -2 -16 5 -20 4 -15 -5 6 -9 3 -9 -12 -2
-12 7 -24 7 -37 0 -15 -8 -17 -8 -11 2 5 9 4 11 -3 6 -11 -7 -59 -16 -94 -19
-12 -1 -14 -6 -8 -17 6 -12 4 -16 -10 -16 -10 0 -17 3 -14 7 6 10 -24 5 -33
-6 -4 -4 -2 -5 6 0 9 5 12 4 7 -3 -4 -7 -14 -12 -22 -12 -8 0 -17 -6 -20 -14
-3 -9 -12 -12 -21 -9 -10 4 -14 2 -10 -4 6 -9 -14 -25 -35 -27 -4 -1 -13 -8
-20 -16 -11 -12 -10 -12 7 0 20 15 20 15 1 -8 -12 -13 -26 -20 -35 -17 -8 3
-12 3 -8 -1 4 -4 -1 -17 -10 -28 -18 -20 -17 -20 2 -6 20 15 20 14 1 -8 -11
-12 -26 -22 -35 -22 -14 0 -14 -2 -1 -10 12 -7 12 -10 1 -10 -8 0 -11 -6 -7
-16 3 -8 2 -12 -4 -9 -6 3 -10 1 -10 -5 0 -6 -5 -8 -11 -4 -7 4 -7 -1 1 -16 7
-13 8 -20 1 -16 -5 4 -15 -3 -21 -15 -9 -16 -9 -20 0 -14 8 5 8 1 -1 -13 -7
-12 -16 -19 -20 -16 -9 5 -6 -17 4 -33 5 -9 2 -13 -8 -13 -15 0 -15 -1 -1 -16
19 -18 21 -28 4 -18 -8 5 -9 2 -5 -9 4 -10 1 -17 -6 -17 -8 0 -8 -3 2 -9 11
-7 11 -9 0 -14 -12 -5 -12 -6 0 -6 11 -1 11 -4 0 -18 -10 -11 -10 -14 -1 -9 7
4 12 1 12 -9 0 -10 -5 -13 -12 -9 -10 6 -10 4 -2 -7 6 -8 11 -27 10 -43 -1
-20 5 -33 21 -43 13 -9 23 -22 23 -29 0 -8 5 -14 11 -14 5 0 7 6 3 13 -4 6 4
2 18 -11 19 -17 28 -20 33 -11 5 7 4 10 -3 5 -6 -3 -13 -2 -16 3 -7 11 13 9
33 -3 10 -6 12 -5 7 2 -6 11 6 16 27 13 4 0 7 6 7 15 0 8 4 13 9 9 5 -3 13 0
17 6 4 8 3 9 -4 5 -7 -4 -12 -3 -12 2 0 6 6 12 14 15 14 6 16 51 2 64 -5 5 -6
2 -1 -6 5 -9 4 -12 -3 -7 -6 4 -9 13 -5 21 3 9 -1 15 -8 15 -9 1 -8 4 4 11 10
6 14 15 10 22 -10 17 -12 57 -1 51 4 -3 8 0 8 6 0 6 6 8 13 5 6 -4 3 1 -7 9
-18 14 -18 16 -3 16 15 0 16 3 6 23 -11 20 -11 21 5 8 14 -12 16 -12 10 4 -5
12 -4 16 4 11 7 -4 10 1 7 14 -2 12 1 20 10 20 9 0 12 6 8 17 -4 11 -3 14 5 9
7 -4 12 -1 12 9 0 10 5 13 12 9 8 -5 9 -2 5 9 -3 9 -3 16 1 15 14 -4 52 13 52
23 0 6 -5 7 -12 3 -6 -4 -8 -3 -5 4 4 5 18 9 32 7 16 -1 31 5 39 17 9 13 16
16 21 9 3 -6 12 -8 18 -4 7 4 18 8 25 9 8 2 23 11 34 20 13 12 18 14 16 5 -2
-7 3 -16 11 -19 8 -2 11 0 8 5 -3 5 0 10 7 10 9 0 12 -7 8 -16 -5 -14 -3 -14
11 -2 9 7 17 10 17 5 0 -5 5 -2 10 6 8 12 10 12 10 -5 0 -17 2 -17 10 -5 8 12
10 12 10 -5 0 -11 4 -15 8 -10 10 15 31 13 41 -4 5 -7 14 -10 20 -7 6 4 11 0
12 -11 0 -10 3 -13 6 -5 2 6 16 12 29 12 17 0 23 4 18 12 -5 8 -2 9 9 5 10 -4
16 -2 14 5 -1 7 3 12 10 13 6 0 15 4 20 9 5 5 3 6 -4 2 -7 -4 -13 -2 -13 3 0
6 6 11 13 11 6 0 12 13 13 30 1 17 -3 30 -8 30 -5 0 -6 -5 -2 -12 4 -7 3 -8
-5 -4 -6 4 -9 12 -5 17 3 6 -2 17 -12 25 -18 13 -18 14 1 8 11 -3 -5 8 -35 24
-30 17 -63 28 -73 26 -14 -2 -17 1 -12 13 5 14 2 13 -16 -3 -12 -10 -19 -14
-16 -8 10 16 -25 28 -35 12 -7 -12 -12 -3 -9 16 1 5 -5 4 -13 -3 -9 -7 -13
-18 -9 -24 3 -6 1 -7 -5 -3 -6 4 -9 12 -6 20 3 7 -2 13 -10 13 -8 0 -13 -5 -9
-10z m-152 -27 c-3 -5 -12 -10 -18 -10 -7 0 -6 4 3 10 19 12 23 12 15 0z"/>
<path d="M1362 1073 c-6 -2 -9 -10 -5 -16 4 -7 -1 -6 -10 2 -15 12 -17 11 -17
-3 0 -9 -6 -16 -14 -16 -7 0 -20 -8 -27 -17 -13 -17 -13 -17 5 -3 18 14 19 14
6 -10 -7 -14 -18 -28 -24 -32 -8 -5 -7 -8 2 -8 6 0 12 -6 12 -14 0 -8 -6 -17
-12 -19 -8 -4 -7 -6 4 -6 14 -1 15 -6 8 -31 -6 -21 -5 -30 3 -30 6 0 2 -7 -9
-16 -10 -8 -14 -13 -8 -10 7 3 14 -1 17 -9 4 -10 1 -12 -10 -8 -12 5 -15 2
-10 -10 3 -9 2 -17 -4 -17 -6 0 -8 -4 -5 -9 4 -5 0 -12 -6 -14 -9 -4 -8 -6 2
-6 11 -1 8 -8 -10 -22 -14 -11 -18 -17 -10 -13 12 6 13 5 3 -8 -7 -8 -9 -19
-5 -24 4 -4 -2 -2 -12 6 -13 10 -17 10 -12 3 4 -8 2 -13 -4 -13 -6 0 -8 -4 -5
-10 3 -5 -1 -10 -10 -10 -9 0 -13 -4 -10 -10 3 -5 1 -10 -5 -10 -6 0 -8 -4 -5
-10 3 -6 -1 -7 -9 -4 -10 4 -18 -1 -22 -10 -5 -14 -9 -14 -22 -4 -12 10 -14
10 -8 1 4 -8 2 -13 -4 -13 -6 0 -8 -6 -4 -12 4 -7 4 -10 -1 -6 -4 4 -14 3 -22
-3 -10 -9 -13 -8 -13 0 0 7 -5 9 -10 6 -6 -4 -8 -11 -5 -16 3 -5 -1 -6 -9 -3
-10 4 -16 1 -16 -7 0 -9 -3 -10 -8 -4 -9 12 -55 18 -48 6 6 -8 -53 -5 -62 4
-3 3 -12 -1 -20 -8 -13 -9 -14 -9 -8 1 7 11 -12 17 -54 14 -11 0 -10 4 5 15
18 14 18 15 1 9 -10 -3 -24 -2 -30 3 -7 6 -17 6 -26 1 -8 -6 -11 -10 -6 -10 5
0 3 -7 -4 -15 -9 -11 -17 -12 -32 -4 -15 8 -19 8 -13 -1 4 -6 -1 -21 -12 -32
-12 -15 -13 -19 -3 -14 8 4 6 0 -4 -8 -13 -10 -15 -16 -7 -16 11 0 11 -3 0
-17 -10 -11 -10 -14 -1 -9 8 5 12 0 12 -14 0 -12 5 -18 10 -15 6 3 10 2 10 -3
0 -5 15 -17 34 -27 19 -11 33 -23 30 -27 -3 -4 7 -3 21 2 15 6 24 6 20 1 -3
-5 -1 -12 5 -16 5 -3 10 0 10 7 0 9 3 9 10 -2 8 -13 10 -13 10 -1 0 11 3 10
13 -3 13 -17 14 -17 30 -1 9 9 17 12 17 7 0 -6 7 -13 16 -16 8 -3 13 -2 10 3
-3 5 3 11 15 14 17 5 18 3 8 -9 -6 -8 -9 -17 -5 -21 3 -3 6 -1 6 6 0 8 8 11
19 8 10 -2 25 -1 32 4 8 4 19 3 28 -4 12 -10 13 -9 2 12 -11 19 -11 22 0 15
22 -13 64 -9 61 6 -2 11 1 10 14 -1 15 -12 17 -12 9 0 -6 11 -4 13 9 8 9 -4
14 -3 11 2 -3 5 -1 12 5 16 5 3 10 0 10 -7 1 -7 8 -2 16 12 8 14 13 17 10 8
-3 -12 -1 -15 9 -11 8 3 12 9 9 14 -3 5 0 9 6 9 7 0 21 11 32 25 10 13 22 24
26 24 19 -3 33 2 27 10 -3 5 4 12 15 16 11 4 18 10 15 15 -3 5 4 12 16 15 14
5 19 13 16 25 -3 13 0 17 10 13 7 -3 13 -2 12 3 -4 21 2 35 11 29 6 -4 10 -3
9 2 -4 21 2 34 13 27 7 -5 8 -3 3 6 -4 7 -2 16 6 21 12 7 12 9 0 9 -11 0 -10
4 4 14 20 14 29 46 14 46 -6 0 -7 5 -4 10 4 6 10 8 14 6 4 -3 7 13 7 34 -1 22
3 40 9 40 5 0 3 5 -5 10 -8 5 -10 10 -3 10 12 0 12 17 0 38 -5 6 -4 12 0 12 5
0 9 9 9 19 0 16 -3 18 -15 8 -12 -10 -13 -9 -4 8 12 24 6 48 -10 39 -8 -5 -8
-3 0 6 10 11 8 16 -10 25 -12 6 -22 16 -22 23 0 12 -16 15 -25 5 -3 -4 1 -3 9
2 9 5 12 4 8 -3 -8 -12 -32 -10 -44 3 -4 4 -2 5 6 0 9 -5 12 -4 7 3 -4 7 -8
12 -9 11 -1 0 -8 -3 -15 -6z m98 -327 c0 -3 -4 -8 -10 -11 -5 -3 -10 -1 -10 4
0 6 5 11 10 11 6 0 10 -2 10 -4z m-655 -136 c3 -5 1 -10 -4 -10 -6 0 -11 5
-11 10 0 6 2 10 4 10 3 0 8 -4 11 -10z"/>
<path d="M1662 911 c-11 -7 -11 -9 0 -14 9 -3 15 1 15 9 0 8 -1 14 -1 14 -1 0
-7 -4 -14 -9z"/>
<path d="M1620 680 c0 -5 5 -10 11 -10 5 0 7 5 4 10 -3 6 -8 10 -11 10 -2 0
-4 -4 -4 -10z"/>
<path d="M190 638 c0 -6 -3 -8 -7 -5 -3 4 -12 -1 -20 -11 -8 -9 -11 -11 -7 -3
5 10 3 12 -5 7 -7 -5 -10 -14 -7 -22 3 -8 0 -11 -10 -7 -10 4 -12 0 -7 -13 4
-12 3 -15 -5 -10 -9 5 -9 1 -2 -18 6 -17 6 -26 0 -26 -6 0 -10 -5 -10 -11 0
-5 5 -7 10 -4 6 3 10 -1 10 -9 0 -9 5 -16 10 -16 6 0 9 -6 8 -12 -2 -7 3 -12
11 -10 12 3 12 1 0 -14 -9 -12 -9 -15 -1 -10 7 4 12 2 12 -4 0 -6 5 -8 13 -4
9 6 9 5 0 -7 -10 -12 -9 -18 7 -29 14 -10 16 -16 7 -22 -8 -5 -4 -8 10 -8 17
0 21 -5 18 -20 -2 -12 0 -18 6 -14 5 3 16 0 25 -6 12 -10 12 -16 2 -28 -9 -11
-9 -14 -1 -9 6 4 14 3 18 -3 4 -6 11 -8 16 -5 5 3 6 -2 2 -11 -4 -11 -2 -15 4
-11 6 4 14 0 17 -9 3 -8 11 -12 16 -9 6 4 9 1 8 -7 -2 -8 4 -12 15 -10 9 2 17
-1 16 -5 -4 -23 3 -33 24 -33 18 0 19 -2 7 -10 -12 -8 -11 -10 8 -10 12 0 22
-5 22 -11 0 -5 5 -7 10 -4 6 3 10 -2 10 -12 0 -14 2 -15 9 -5 6 10 10 8 14 -8
3 -12 10 -19 16 -16 5 4 13 2 16 -4 5 -8 11 -8 20 0 12 10 13 8 10 -10 -4 -19
-2 -20 12 -8 14 11 16 11 8 -1 -6 -11 -4 -13 8 -8 10 3 17 2 17 -3 0 -6 9 -10
20 -10 12 0 30 -8 41 -18 20 -19 45 -22 67 -9 8 5 10 3 6 -6 -6 -15 22 -17 46
-2 13 8 13 6 1 -8 -7 -9 -10 -17 -5 -18 5 0 20 -2 34 -5 19 -3 21 -2 10 6 -9
6 -10 10 -3 10 6 0 14 -4 17 -9 7 -10 335 -11 341 0 3 4 -12 5 -33 3 -23 -2
-32 0 -23 5 7 5 29 8 47 7 19 -1 34 3 34 8 0 6 7 1 15 -10 14 -19 14 -19 11 2
-3 13 1 21 9 21 8 0 12 -4 9 -9 -10 -16 6 -8 26 14 11 12 20 19 20 15 0 -4 10
-3 21 4 13 7 19 7 15 1 -3 -6 -2 -14 4 -17 6 -4 9 -1 8 6 -2 7 12 20 30 29 18
9 30 19 26 22 -3 4 3 4 14 1 11 -2 23 1 27 8 6 8 4 10 -5 4 -8 -5 -4 7 8 26
17 28 19 38 9 49 -9 10 -9 11 0 6 9 -5 11 -2 7 8 -3 9 -11 13 -18 9 -6 -4 -6
0 2 9 10 13 10 18 1 24 -8 5 -10 3 -5 -7 5 -8 2 -8 -6 2 -7 9 -19 14 -26 12
-8 -3 -10 1 -5 12 5 15 3 16 -15 6 -14 -7 -23 -8 -27 -1 -3 5 -1 10 6 10 7 0
9 3 6 6 -4 4 -13 2 -20 -4 -8 -7 -18 -8 -22 -4 -5 4 -5 -1 -2 -10 4 -10 2 -18
-3 -18 -6 0 -10 6 -10 13 -1 7 -6 5 -14 -6 -15 -19 -41 -24 -31 -4 4 6 -6 -2
-22 -18 -15 -17 -25 -26 -21 -20 4 6 -3 10 -17 10 -15 0 -21 -4 -17 -14 4 -10
1 -13 -10 -9 -9 4 -21 1 -28 -5 -8 -7 -10 -7 -7 -1 3 6 0 11 -7 11 -8 0 -12
-5 -10 -12 6 -14 -36 -17 -53 -3 -10 8 -12 7 -8 -3 4 -10 -1 -15 -14 -15 -11
0 -17 5 -14 10 4 5 -1 7 -11 3 -10 -4 -20 -7 -22 -7 -3 0 -2 -4 1 -10 3 -5
-13 -3 -36 5 -38 14 -41 14 -35 -2 6 -15 4 -14 -14 2 -11 10 -20 13 -20 7 0
-13 -31 -4 -42 12 -5 8 -8 7 -8 -1 0 -9 -7 -10 -26 -3 -14 6 -31 7 -37 3 -7
-4 -5 2 3 12 14 17 14 18 -7 7 -27 -15 -36 -15 -28 -1 4 6 1 10 -6 8 -29 -3
-40 1 -33 13 5 8 0 7 -11 -2 -15 -12 -17 -12 -10 -1 6 11 3 13 -14 8 -15 -4
-24 1 -32 15 -6 11 -17 17 -25 14 -8 -3 -14 -1 -14 4 0 6 -7 10 -16 10 -8 0
-13 4 -10 8 2 4 -5 14 -17 22 -20 12 -21 12 -8 -3 7 -10 9 -17 3 -17 -13 0
-24 29 -15 42 3 6 1 8 -5 4 -6 -3 -13 -2 -17 4 -3 5 -15 15 -27 21 -16 9 -19
8 -13 -2 5 -8 4 -10 -3 -5 -7 4 -12 16 -12 27 0 12 -7 19 -18 19 -10 0 -29 17
-42 40 -14 22 -31 40 -39 40 -8 0 -11 3 -8 7 4 3 -1 16 -10 27 -17 20 -17 20
1 6 18 -14 18 -14 6 7 -8 12 -18 19 -22 17 -7 -5 -12 10 -9 29 0 4 -4 7 -10 7
-5 0 -7 5 -4 10 3 6 -1 10 -10 10 -9 0 -13 5 -10 10 3 6 -3 10 -15 10 -12 0
-19 4 -16 8 3 5 -1 9 -9 9 -8 0 -12 -3 -10 -7 2 -4 -2 -7 -10 -7 -8 0 -12 4
-9 9 3 4 0 8 -5 8 -6 0 -11 -5 -11 -12z m319 -312 c-3 -3 -11 5 -18 17 -13 21
-12 21 5 5 10 -10 16 -20 13 -22z"/>
<path d="M1270 495 c-8 -9 -8 -15 -2 -15 12 0 26 19 19 26 -2 2 -10 -2 -17
-11z"/>
<path d="M1267 49 c7 -7 15 -10 18 -7 3 3 -2 9 -12 12 -14 6 -15 5 -6 -5z"/>
</g>
</svg>
